<?xml version="1.0" encoding="UTF-8" standalone="no"?>
<svg
   xmlns:dc="http://purl.org/dc/elements/1.1/"
   xmlns:cc="http://creativecommons.org/ns#"
   xmlns:rdf="http://www.w3.org/1999/02/22-rdf-syntax-ns#"
   xmlns:svg="http://www.w3.org/2000/svg"
   xmlns="http://www.w3.org/2000/svg"
   version="1.1"
   id="svg2"
   viewBox="0 0 3628.3465 3628.3464"
   height="1024mm"
   width="1024mm">
  <defs
     id="defs4" />
  <metadata
     id="metadata7">
    <rdf:RDF>
      <cc:Work
         rdf:about="">
        <dc:format>image/svg+xml</dc:format>
        <dc:type
           rdf:resource="http://purl.org/dc/dcmitype/StillImage" />
        <dc:title></dc:title>
      </cc:Work>
    </rdf:RDF>
  </metadata>
  <g
     transform="translate(0,2575.9843)"
     id="g4202"
     style="display:inline;opacity:1">
    <path
       id="path4204"
       d="m 2513.8644,-1272.3235 -325.2911,19.7746 -18.8331,622.82741 c 1.9121,-1.27184 4.4528,-2.8326 6.1443,-4.00199 95.9377,-66.3217 123.2716,-22.51599 163.2577,12.66512 104.8409,112.2272 185.376,235.09325 248.5,365.66423 219.4902,454.01118 350.9141,1134.64268 404.7897,1406.51143 55.6668,-0.5665 115.2244,-2.7465 165.8941,-8.7105 -35.6597,-299.45674 -171.496,-579.94059 -167.0714,-864.68905 11.8188,-97.88105 16.7218,-141.90738 31.6225,-228.542953 36.3576,-162.858047 61.47,-321.015307 124.0117,-455.957077 45.4917,-95.43293 83.1011,-296.13821 90.4839,-404.01402 6.3933,-93.42242 -17.9991,-190.1998 -32.532,-274.898 -9.0369,-53.499 -31.9984,-91.9042 -45.7362,-82.1793 -157.292,111.3438 -259.7776,432.43618 -271.4458,585.80396 -18.1369,238.39398 16.4223,530.059368 24.3747,729.14495 3.3486,83.83197 -4.9934,80.68422 28.961,114.82304 0.1542,0.1555 0.2929,0.2929 0.4471,0.44718 l -40.3729,-12.47684 c -0.8932,-7.77025 -4.7608,-13.91827 -11.8883,-21.04572 -9.7954,-9.79527 -30.8023,-60.39436 -46.6822,-112.45596 -80.4613,-263.79121 -262.8331,-643.99661 -396.2676,-826.1521 -79.8383,-108.98952 -126.6282,-153.3217 -135.95,-242.52065 -7.2026,-68.91986 -5.0328,-83.15286 20.7868,-135.92626 35.3636,-72.2804 100.6646,-150.3327 134.4435,-160.6917 8.5137,-2.6109 27.2736,-11.8884 48.3534,-23.4 z"
       style="color:#000000;display:inline;overflow:visible;visibility:visible;opacity:1;fill:#000000;fill-opacity:1;fill-rule:nonzero;stroke:#000000;stroke-width:34.74306107;stroke-linecap:round;stroke-linejoin:miter;stroke-miterlimit:4;stroke-dasharray:none;stroke-dashoffset:0;stroke-opacity:1;marker:none;enable-background:accumulate" />
    <path
       id="path4206"
       d="m 1676.083,-1223.8455 c -9.8402,0 -23.2161,-3.1826 -23.2161,6.6575 0,9.8402 15.1295,16.8887 22.5098,14.4286 23.9827,-7.9941 20.6609,-21.0861 0.7063,-21.0861 z m 82.2931,13.0148 c -1.9293,0.037 -3.6741,0.2846 -5.2263,0.7776 -28.0015,8.8872 -20.8022,51.4963 13.2133,78.6945 17.7107,14.161 20.8204,25.5465 14.6426,53.6738 -8.0877,36.8231 2.0193,45.7219 25.401,22.3403 19.6863,-19.6861 32.0797,-0.4846 16.1491,25.0242 -31.5871,50.57882 -15.5005,64.43002 45.6227,39.26673 28.851,-11.87753 24.8172,13.26094 -8.4747,52.82622 -34.1807,40.62136 -36.2296,65.75038 -5.3675,65.75038 38.6994,0 48.097,47.87938 22.5759,115.04543 -12.1101,31.87105 -19.1645,62.58161 -15.6784,68.22225 14.7393,23.84835 -84.6079,94.98765 -179.2891,128.39318 -61.23,21.60316 -99.0312,57.50186 -99.2494,94.25862 -0.096,16.00752 -4.8274,36.44625 -10.4994,45.41084 -7.0787,11.18801 -4.3631,20.64833 8.6396,30.15614 10.4188,7.61825 15.1598,17.63314 10.5465,22.24645 -4.6131,4.6133 -17.3117,0.32542 -28.2259,-9.51072 -40.6814,-36.66225 -73.3761,-34.79462 -118.7648,6.77985 -23.2827,21.32596 -42.3391,48.25007 -42.3505,59.84161 -0.023,18.09175 -9.6526,21.2617 -68.0574,22.34046 -61.4801,1.13539 -67.4039,-0.769 -61.3716,-19.77448 4.4954,-14.16391 1.1197,-21.02222 -10.3582,-21.02222 -29.5968,0 -32.0775,-21.71129 -7.0859,-62.14856 25.904,-41.91354 22.4477,-62.14856 -10.5935,-62.14856 -49.4659,0 -81.844,-130.33523 -45.1753,-181.83165 12.8739,-18.07953 30.697,-32.86337 39.596,-32.86337 19.2387,0 21.3182,-24.2339 3.6019,-41.95035 -20.9964,-20.99625 -0.023,-37.08066 49.9542,-38.30146 44.0702,-1.07629 45.0121,-1.74079 13.4655,-9.34573 -65.6185,-15.81918 -132.0441,-66.71417 -123.3789,-94.54117 20.7401,-66.60404 27.3394,-75.75524 54.6389,-75.75524 36.5122,0 47.1936,-19.06199 24.6475,-43.97484 -23.0683,-25.48993 -22.889,-42.60681 0.5883,-55.74541 13.699,-7.6665 16.8339,-19.5278 11.794,-44.7281 -5.0339,-25.1694 -2.1811,-36.1137 10.7583,-41.0793 9.9602,-3.8219 14.835,-14.0926 11.1819,-23.6116 -7.552,-19.6807 17.6447,-22.509 49.3659,-5.5323 30.2883,16.2098 58.8721,22.7262 33.8178,-4.9584 -1.8201,-2.0115 42.8453,7.5492 39.3907,4.5235 -83.9835,-12.7398 -73.6904,-19.294 -121.3972,-37.5134 -63.1336,-24.1109 -77.9819,-23.4486 -108.4068,4.8966 -16.547,15.416 -22.8418,30.9165 -18.3386,45.1049 4.3882,13.8258 -10.2661,53.2285 -40.6321,109.3012 -26.1121,48.21791 -62.6526,118.17652 -81.2168,155.46567 -18.564,37.28916 -45.8276,82.17602 -60.59494,99.74376 -23.6348,28.11742 -26.86038,43.37995 -26.86038,127.56925 0,79.09021 -4.06676,101.1361 -23.47059,127.38101 -28.65513,38.75828 -13.39248,87.17456 44.68127,141.78816 63.18744,59.423 28.57324,108.05382 -76.90887,108.05382 -76.8632,0 -88.74932,21.80373 -56.56937,103.91047 12.91833,32.96087 35.85381,72.919888 50.94299,88.797133 15.08907,15.877124 27.42535,34.600936 27.42535,41.597132 0,6.996196 11.44105,14.328196 25.42442,16.314052 20.57076,2.9215425 24.71115,9.6646185 21.70494,35.311595 -4.47518,38.180936 24.86234,86.960988 52.30838,86.960988 10.9035,0 29.8564,7.00896 42.1151,15.58423 56.0246,39.18978 131.3426,38.52879 165.3528,-1.45962 14.5359,-17.09076 40.5376,-37.381352 57.77,-45.081202 20.8272,-9.30605 33.6132,-25.40724 38.1364,-48.02395 7.4541,-37.2703355 15.9376,-40.8600925 48.4949,-20.527797 49.7663,31.07952 90.6254,3.840468 109.7824,-110.199387 3.9372,-23.438614 42.6496,-78.403654 59.7071,-98.469114 45.188,-68.8873 85.3716,-79.10382 143.6008,-108.15857 57.684,-28.70953 125.6364,-41.139 141.2231,-49.93507 74.1319,-41.02257 47.2029,-119.3596 62.9623,-165.86943 15.7593,-46.50984 48.1291,-60.94335 83.5501,-63.97024 32.7362,-2.79763 30.1554,-5.61874 39.1555,-31.43662 12.1961,-34.98552 -3.9692,-102.76839 -22.7735,-132.02026 -15.2891,-23.78339 -14.3527,-58.39056 -14.5382,-99.54531 -0.3169,-70.51221 5.8201,-72.59205 -43.1612,-141.80511 -28.5878,-40.39649 -57.5813,-83.35129 -61.8054,-96.76059 -4.2241,-13.4092 -11.3479,-27.2347 -20.4338,-30.7212 -9.0857,-3.4865 -16.5256,-12.8465 -16.5258,-20.8104 -5e-4,-23.5738 -52.2126,-72.7295 -81.1495,-72.2208 z m -510.8356,25.5389 c 2.4755,0.1276 4.4383,0.7424 5.6733,1.9774 3.5284,3.5284 -6.3091,19.139 -21.8461,34.676 -27.237,27.2369 -43.9984,26.9507 -43.9984,-0.7533 0,-13.0984 42.842,-36.7981 60.1712,-35.9001 z m -56.1457,91.2924 c 4.9027,-0.1217 7.2918,6.2111 5.391,19.5863 -2.1116,14.8565 -12.8988,28.3004 -24.4829,30.5091 -17.5969,3.3554 -18.8526,0.4785 -8.4042,-19.0447 10.7561,-20.0976 21.1929,-30.894 27.4961,-31.0507 z"
       style="color:#000000;display:inline;overflow:visible;visibility:visible;opacity:1;fill:#000000;fill-opacity:1;fill-rule:nonzero;stroke:#000000;stroke-width:6.02652693;stroke-linecap:round;stroke-linejoin:miter;stroke-miterlimit:4;stroke-dasharray:none;stroke-dashoffset:0;stroke-opacity:1;marker:none;enable-background:accumulate" />
    <path
       id="path4208"
       transform="translate(0,-2575.9843)"
       d="m 2416.9922,79.263672 c -8.4515,0.1411 -23.4577,7.045737 -46.0938,19.585937 -176.9311,98.017001 -267.7042,190.667161 -347.5371,354.693361 -76.4096,156.9927 -91.6376,230.97462 -100.2148,487.23242 l -7.1797,214.69341 -56.3809,-58.334 c -85.2049,-88.1538 -189.4926,-161.25148 -333.3183,-233.62308 -117.3204,-59.0344 -140.5578,-66.58211 -240.8262,-78.13281 -159.0018,-18.3165 -222.4555,-4.81009 -412.32226,87.76171 -85.0814,41.48241 -182.2852,82.75556 -216.01367,91.69336 -33.72856,8.9378 -85.02863,33.27002 -113.98633,54.07422 -28.95783,20.804 -75.09247,47.8911 -102.52148,60.2168 -57.67627,25.9178 -108.91833,75.5797 -90.04493,87.2441 6.79562,4.1999 28.78613,-2.2751 48.8711,-14.3828 85.60272,-51.6034 132.62175,-40.7167 355.82422,-8.664 152.70245,21.9286 296.19255,76.0118 353.80645,115.3449 30.0219,17.7502 60.2443,41.185 68.5932,53.4356 5.0297,-0.9117 35.1501,-7.7096 67.8855,-0.7063 35.6521,7.6273 74.9376,29.4974 101.9181,38.6583 39.813,13.518 109.2562,28.4131 130.4022,26.6612 35.1439,-2.9117 59.5036,29.2137 69.9218,59.6246 -15.5333,-8.4557 -40.7466,-24.4036 -63.8612,-25.2781 -30.8258,-1.1663 -59.67,18.3925 -106.1329,10.4941 -0.8912,-0.1515 -1.798,-0.3294 -2.7031,-0.5058 2.9162,14.8242 -8.6565,22.4215 -29.4648,11.2851 -31.7211,-16.9767 -56.9175,-14.1474 -49.3653,5.5332 3.6528,9.519 -1.2233,19.7894 -11.1835,23.6114 -12.9393,4.9655 -15.7919,15.9107 -10.7579,41.08 5.04,25.2004 1.9042,37.0601 -11.7949,44.7266 -23.4775,13.1386 -23.6563,30.2562 -0.5879,55.7461 22.546,24.913 11.8657,43.9746 -24.6465,43.9746 -27.2996,0 -33.8984,9.152 -54.6386,75.7559 -8.6651,27.827 57.7603,78.7218 123.3789,94.541 31.5465,7.605 30.6033,8.2692 -13.4668,9.3457 -49.9808,1.2207 -70.9495,17.3045 -49.9531,38.3008 17.7163,17.7164 15.637,41.9511 -3.6016,41.9511 -8.8991,0 -26.7238,14.7837 -39.5977,32.8633 -36.6688,51.4965 -4.2901,181.8321 45.1758,181.8321 33.0412,0 36.4977,20.2349 10.5938,62.1484 -24.9916,40.4373 -22.5109,62.1484 7.0859,62.1484 11.4786,0 14.8529,6.8576 10.3574,21.0215 -6.0323,19.0058 -0.107,20.9113 61.3731,19.7754 58.405,-1.0787 68.0351,-4.25 68.0566,-22.3418 0.012,-11.5915 19.0669,-38.5139 42.3496,-59.8398 45.3887,-41.5745 78.0841,-43.4435 118.7656,-6.7813 10.914,9.8357 23.6136,14.125 28.2266,9.5117 4.6133,-4.6133 -0.1282,-14.6278 -10.5469,-22.2461 -13.0027,-9.5078 -15.7175,-18.9682 -8.6386,-30.1562 5.6718,-8.9646 10.4029,-29.4046 10.498,-45.4121 0.2183,-36.7568 38.0199,-72.6547 99.25,-94.2578 94.6811,-33.4055 194.0282,-104.5441 179.2891,-128.3926 -3.4863,-5.6406 3.5677,-36.3516 15.6777,-68.2227 25.5211,-67.1659 16.1231,-115.0468 -22.5762,-115.0468 -30.8621,0 -28.8134,-25.1287 5.3672,-65.75 33.292,-39.5652 37.3275,-64.7036 8.4766,-52.8262 -61.1232,25.1633 -77.2101,11.3132 -45.6231,-39.2656 15.9307,-25.5091 3.5359,-44.7115 -16.1504,-25.0254 -23.3815,23.3816 -33.4879,14.4833 -25.4003,-22.3399 6.1779,-28.1274 3.0681,-39.5127 -14.6426,-53.6738 -34.0155,-27.1983 -42.2906,-76.8022 -14.2891,-85.6895 24.8323,-7.8815 123.5034,39.3039 123.5039,64.4493 2e-4,7.9638 7.4398,17.3241 16.5254,20.8105 9.0859,3.4864 19.975,17.3114 24.1992,30.7207 4.224,13.4092 31.0664,57.4394 59.6543,97.836 48.9811,69.2129 63.1033,80.7819 63.4203,151.2941 0.1856,41.1548 4.9085,59.1356 27.0461,90.5286 20.0405,28.4191 45.0706,122.4663 32.8746,157.4519 -9.0001,25.8179 -24.7024,66.8703 -49.445,69.7074 -22.4443,2.5734 -59.3325,8.1049 -66.8007,33.0625 -7.6741,25.6457 60.2176,-0.3419 65.9003,-3.7383 81.0358,-48.4274 148.6126,-143.111 249.6294,-198.8082 56.0362,-30.8966 54.0047,-52.4183 48.9649,-83.0293 -32.0843,-194.8742 -39.8433,-211.2282 -11.6289,-272.3809 43.9391,-95.2354 124.4787,-162.4334 172.9316,-186.0839 95.6065,-46.6667 176.5641,-87.5737 284.5469,-117.5313 101.3729,-28.1237 172.0939,-30.6927 253.1914,-35.625 99.4873,-6.0507 114.3314,-4.0421 202.6172,27.3789 52.3937,18.647 100.0157,30.9543 105.8418,27.3535 14.5125,-8.9692 1.0766,-97.7821 -21.3516,-141.1523 -52.0982,-100.74731 -205.2797,-194.06447 -254.7969,-194.06447 -7.8336,0 -26.8125,-4.72093 -39.7089,-22.83203 -33.1069,-46.4943 -217.5754,-33.5968 -309.0606,-5.3125 -110.2097,34.0732 -214.7557,88.6428 -344.0449,208.3418 -92.5204,85.6577 -102.6406,80.2612 -102.6406,-54.5684 0,-133.31216 15.0085,-254.00953 57.2285,-460.50972 18.4245,-90.1155 36.3874,-209.61113 39.9258,-265.54493 3.9236,-62.0242 15.1741,-123.07431 28.8613,-156.47851 17.4649,-42.623303 21.6191,-61.182468 7.5332,-60.947268 z M 1676.8191,1317.6723 c 19.9546,0 37.6928,48.5684 -1.4421,55.5523 -7.6585,1.3667 -23.5195,-4.588 -23.5195,-14.4282 0,-9.8401 15.1213,-41.1241 24.9616,-41.1241 z m -430.9753,73.0074 c -18.2678,0.5861 -58.4747,23.223 -58.4747,35.9121 0,27.704 16.7611,27.9908 43.9981,0.7539 15.537,-15.537 25.3741,-31.1472 21.8457,-34.6758 -1.235,-1.235 -3.1964,-1.8484 -5.6719,-1.9765 -0.5415,-0.028 -1.108,-0.033 -1.6972,-0.014 z m -54.4493,91.3047 c -6.3032,0.1567 -16.74,10.9532 -27.4961,31.0508 -10.4484,19.5229 -9.1926,22.4003 8.4043,19.0449 11.5841,-2.2087 22.3709,-15.6533 24.4825,-30.5098 1.9008,-13.3752 -0.488,-19.708 -5.3907,-19.5859 z"
       style="color:#000000;display:inline;overflow:visible;visibility:visible;opacity:1;fill:#000000;fill-opacity:1;fill-rule:nonzero;stroke:none;stroke-width:3;stroke-linecap:round;stroke-linejoin:miter;stroke-miterlimit:4;stroke-dasharray:none;stroke-dashoffset:0;stroke-opacity:1;marker:none;enable-background:accumulate" />
    <path
       id="rect4221"
       d="m 1687.9149,-942.94659 c 41.2851,-13.05311 -15.2359,-46.45007 4.7266,-65.88551 19.9628,-19.4354 -3.1178,-55.6526 4.3976,-64.5353 10.0149,-11.8367 -2.3127,-35.1591 20.8799,-26.7254 20.8082,99.7461 119.7953,233.42553 85.017,372.35325 -30.1527,120.45019 -293.981,124.78091 -403.4301,263.56834 -16.8361,-29.59098 2.0433,-94.98755 45.2594,-105.96546 24.8269,-6.30605 46.5052,-87.9788 95.5832,-92.17242 71.7527,-6.13114 26.3543,-54.03742 50.79,-80.69086 24.4357,-26.65343 72.8046,-21.80817 83.1965,-49.14771 10.3918,-27.33943 -36.3116,-52.49982 -0.5341,-75.36363 35.7777,-22.86372 -27.1711,-62.38219 14.114,-75.4353 z"
       style="color:#000000;display:inline;overflow:visible;visibility:visible;opacity:1;fill:#ffffff;fill-opacity:1;fill-rule:nonzero;stroke:none;stroke-width:0.5;stroke-linecap:round;stroke-linejoin:miter;stroke-miterlimit:4;stroke-dasharray:none;stroke-dashoffset:0;stroke-opacity:1;marker:none;enable-background:accumulate" />
  </g>
</svg>
